<?xml version="1.0" standalone="no"?>
<!DOCTYPE svg PUBLIC "-//W3C//DTD SVG 20010904//EN"
 "http://www.w3.org/TR/2001/REC-SVG-20010904/DTD/svg10.dtd">
<svg version="1.0" xmlns="http://www.w3.org/2000/svg"
 width="700.000000pt" height="700.000000pt" viewBox="0 0 700.000000 700.000000"
 preserveAspectRatio="xMidYMid meet">
<metadata>
Created by potrace 1.14, written by Peter Selinger 2001-2017
</metadata>
<g transform="translate(0.000000,700.000000) scale(0.100000,-0.100000)"
fill="#000000" stroke="none">
<path d="M5498 6125 c-2 -2 -50 -6 -108 -9 -58 -4 -116 -8 -130 -10 -34 -6
-119 -18 -151 -22 -76 -10 -279 -60 -384 -95 -136 -45 -328 -135 -435 -205
-167 -108 -375 -298 -436 -398 -58 -95 -67 -112 -110 -196 -102 -204 -194
-495 -219 -695 -4 -27 -8 -61 -11 -75 -2 -14 -7 -79 -10 -144 -6 -111 -9 -125
-45 -201 -22 -46 -39 -88 -39 -94 0 -22 -15 -10 -37 28 -70 121 -238 318 -368
428 -207 176 -547 328 -820 368 -22 4 -47 8 -55 10 -14 4 -106 13 -200 21
-143 11 -446 0 -581 -21 -19 -3 -47 -7 -64 -9 -172 -22 -240 -39 -290 -74 -52
-36 -102 -103 -116 -155 -22 -84 -18 -121 32 -270 235 -704 613 -1158 1143
-1371 87 -35 236 -80 306 -91 19 -3 42 -8 50 -10 74 -20 480 -28 635 -11 44 4
82 9 85 11 3 1 34 6 70 9 36 4 83 11 104 16 22 5 43 7 47 5 3 -3 9 -26 13 -52
8 -58 16 -109 22 -143 23 -131 36 -260 40 -390 3 -131 1 -168 -16 -239 -51
-211 -188 -371 -438 -513 -20 -11 -56 -31 -79 -44 l-41 -24 -449 -2 -448 -3
-50 -27 c-60 -31 -104 -77 -136 -138 -19 -36 -24 -61 -24 -125 0 -96 23 -147
92 -212 90 -84 -42 -77 1648 -78 1656 0 1557 -4 1644 65 165 131 138 388 -53
488 l-51 27 -619 3 c-341 1 -621 4 -623 6 -2 2 13 27 33 57 103 154 173 362
191 569 11 127 6 314 -12 450 -3 19 -7 51 -10 70 -7 55 -15 110 -25 170 -5 30
-12 73 -15 95 -3 22 -8 49 -10 61 -4 20 -13 79 -32 215 -4 30 -8 131 -8 224 0
143 4 195 18 268 1 5 13 43 27 85 l25 77 65 7 c56 6 93 12 230 35 60 9 241 56
315 79 80 26 291 111 310 124 6 4 37 22 70 40 246 133 417 303 573 567 148
250 248 587 277 933 4 41 8 86 11 100 8 54 6 187 -5 226 -23 84 -111 173 -195
195 -39 11 -122 19 -128 14z m-282 -632 c-3 -10 -7 -35 -10 -55 -18 -118 -74
-295 -131 -410 -143 -287 -311 -424 -670 -547 -52 -18 -274 -71 -296 -71 -9 0
-3 45 18 125 8 33 17 68 18 78 12 59 74 220 127 324 51 104 71 134 132 193
180 177 393 289 681 355 125 29 138 30 131 8z m-3211 -1246 c11 -3 40 -8 65
-12 58 -9 199 -43 225 -54 11 -5 40 -17 65 -26 186 -68 376 -227 506 -423 57
-86 178 -312 170 -319 -23 -23 -429 -22 -544 2 -122 25 -199 52 -311 110 -183
94 -313 215 -446 415 -55 82 -165 284 -165 303 0 3 15 7 33 9 42 5 376 0 402
-5z"/>
</g>
</svg>
